<?xml version="1.0" standalone="no"?>
<!DOCTYPE svg PUBLIC "-//W3C//DTD SVG 20010904//EN"
 "http://www.w3.org/TR/2001/REC-SVG-20010904/DTD/svg10.dtd">
<svg version="1.0" xmlns="http://www.w3.org/2000/svg"
 width="300.000000pt" height="300.000000pt" viewBox="0 0 300.000000 300.000000"
 preserveAspectRatio="xMidYMid meet">
<metadata>
Created by potrace 1.10, written by Peter Selinger 2001-2011
</metadata>
<g transform="translate(0.000000,300.000000) scale(0.100000,-0.100000)"
fill="#000000" stroke="none">
<path d="M1402 2237 c-20 -10 -24 -21 -27 -67 -2 -30 -8 -109 -15 -175 -7 -66
-9 -154 -6 -196 6 -74 5 -78 -28 -133 -77 -128 -79 -142 -84 -518 l-4 -338 30
-30 30 -30 201 0 c197 0 200 0 228 24 l28 24 0 339 c0 326 -1 340 -23 404 -12
37 -38 92 -58 124 -33 56 -34 60 -28 134 3 42 1 130 -6 196 -7 66 -13 145 -15
175 -4 69 -21 80 -125 80 -41 0 -86 -6 -98 -13z m136 -24 c-21 -2 -55 -2 -75
0 -21 2 -4 4 37 4 41 0 58 -2 38 -4z m63 -133 c7 -58 13 -166 13 -240 1 -128
2 -137 28 -180 58 -97 88 -199 88 -302 0 -35 -2 -38 -28 -38 -24 0 -27 4 -27
33 0 30 -3 32 -37 35 -30 3 -37 8 -43 30 -14 55 -41 66 -75 30 l-20 -22 -20
22 c-34 36 -61 25 -75 -30 -6 -22 -13 -27 -43 -30 -34 -3 -37 -5 -37 -35 0
-29 -3 -33 -27 -33 -26 0 -28 3 -28 38 0 103 30 205 88 302 26 43 27 52 28
180 0 74 6 182 13 240 l13 105 88 0 88 0 13 -105z m-99 -680 c8 0 23 9 34 21
l19 21 11 -38 c10 -35 14 -39 48 -42 29 -3 36 -7 34 -20 -3 -15 -20 -17 -148
-17 -128 0 -145 2 -148 17 -2 13 5 17 35 20 34 3 38 6 46 41 l9 38 22 -20 c12
-12 29 -21 38 -21z m228 -175 l0 -65 -230 0 -230 0 0 65 0 65 230 0 230 0 0
-65z m-406 -123 c-7 -35 16 -57 50 -48 22 5 26 2 32 -29 9 -48 34 -61 68 -34
l26 20 26 -20 c34 -27 59 -14 68 34 6 31 10 34 32 29 34 -9 57 13 50 48 -5 26
-3 28 24 28 l30 0 0 -155 c0 -209 17 -195 -230 -195 -247 0 -230 -14 -230 195
l0 155 30 0 c27 0 29 -2 24 -28z m320 12 c11 -28 6 -34 -19 -28 -28 7 -55 -10
-55 -35 0 -9 -4 -23 -10 -31 -8 -12 -11 -12 -28 3 -10 9 -25 17 -32 17 -7 0
-22 -8 -32 -17 -17 -15 -20 -15 -28 -3 -6 8 -10 22 -10 31 0 25 -27 42 -55 35
-25 -6 -30 0 -19 28 9 24 279 24 288 0z"/>
<path d="M1444 1261 c-14 -14 4 -21 57 -21 44 0 60 3 57 13 -4 11 -103 18
-114 8z"/>
<path d="M1395 1200 c-3 -5 0 -13 8 -15 24 -10 202 -1 202 10 0 14 -201 19
-210 5z"/>
<path d="M1680 856 c0 -26 -16 -36 -57 -36 -15 0 -23 -5 -20 -12 7 -20 78 -14
94 8 18 24 17 64 -2 64 -9 0 -15 -9 -15 -24z"/>
</g>
</svg>
