<?xml version="1.0" standalone="no"?>
<!DOCTYPE svg PUBLIC "-//W3C//DTD SVG 20010904//EN"
 "http://www.w3.org/TR/2001/REC-SVG-20010904/DTD/svg10.dtd">
<svg version="1.0" xmlns="http://www.w3.org/2000/svg"
 width="300.000000pt" height="300.000000pt" viewBox="0 0 300.000000 300.000000"
 preserveAspectRatio="xMidYMid meet">
<metadata>
Created by potrace 1.10, written by Peter Selinger 2001-2011
</metadata>
<g transform="translate(0.000000,300.000000) scale(0.100000,-0.100000)"
fill="#000000" stroke="none">
<path d="M1326 2828 c-18 -25 -21 -64 -6 -73 7 -4 6 -13 -1 -26 -5 -11 -7 -30
-3 -42 5 -12 7 -26 7 -32 -1 -5 -23 -183 -48 -395 -46 -376 -47 -385 -81 -452
-71 -141 -69 -117 -69 -868 0 -750 -3 -711 67 -762 33 -23 36 -23 308 -23 272
0 275 0 308 23 70 51 67 12 67 762 0 751 2 727 -69 868 -34 67 -35 76 -81 452
-25 212 -47 390 -48 395 0 6 2 20 7 32 4 12 2 31 -3 42 -7 13 -8 22 -1 26 15
9 12 48 -6 73 -15 21 -21 22 -174 22 -153 0 -159 -1 -174 -22z m329 -28 c4
-12 1 -28 -6 -36 -9 -11 -9 -21 -1 -38 6 -13 7 -27 2 -32 -5 -5 14 -191 41
-414 l49 -405 39 -85 c22 -47 44 -103 50 -125 7 -26 11 -276 11 -718 1 -754 4
-719 -66 -752 -47 -22 -501 -22 -548 0 -70 33 -67 -2 -66 752 0 442 4 692 11
718 6 22 28 78 50 125 l39 85 49 405 c27 223 46 409 41 414 -5 5 -4 19 2 32 8
17 8 27 -1 38 -7 8 -10 24 -6 36 6 19 14 20 155 20 141 0 149 -1 155 -20z"/>
</g>
</svg>
