<svg xmlns="http://www.w3.org/2000/svg" viewBox="0 0 1024 1536">
<mask id="glassMask">
<rect width="100%" height="100%" fill="black"/>
<path d="M 504,141 L 503,142 L 498,142 L 497,143 L 494,143 L 493,144 L 491,144 L 490,145 L 488,145 L 487,146 L 486,146 L 485,147 L 483,147 L 482,148 L 481,148 L 480,149 L 479,149 L 478,150 L 477,150 L 475,152 L 474,152 L 472,154 L 471,154 L 468,157 L 467,157 L 465,159 L 459,159 L 457,157 L 455,157 L 454,156 L 453,156 L 452,155 L 449,155 L 448,154 L 446,154 L 445,153 L 441,153 L 440,152 L 435,152 L 434,151 L 412,151 L 411,152 L 405,152 L 404,153 L 401,153 L 400,154 L 397,154 L 396,155 L 394,155 L 393,156 L 392,156 L 391,157 L 390,157 L 389,158 L 387,158 L 386,159 L 385,159 L 383,161 L 382,161 L 381,162 L 380,162 L 378,164 L 377,164 L 374,167 L 373,167 L 361,179 L 360,179 L 359,180 L 356,180 L 355,181 L 352,181 L 351,180 L 348,180 L 347,181 L 335,181 L 334,182 L 330,182 L 329,183 L 326,183 L 325,184 L 323,184 L 322,185 L 319,185 L 318,186 L 317,186 L 316,187 L 315,187 L 314,188 L 313,188 L 312,189 L 310,189 L 308,191 L 307,191 L 306,192 L 305,192 L 304,193 L 303,193 L 300,196 L 299,196 L 297,198 L 296,198 L 289,205 L 288,205 L 285,208 L 285,209 L 279,215 L 278,215 L 276,217 L 274,217 L 273,218 L 272,218 L 271,219 L 269,219 L 268,220 L 267,220 L 266,221 L 264,221 L 263,222 L 262,222 L 261,223 L 260,223 L 258,225 L 257,225 L 256,226 L 255,226 L 253,228 L 252,228 L 250,230 L 249,230 L 244,235 L 243,235 L 235,243 L 235,244 L 231,248 L 231,249 L 229,251 L 229,252 L 227,254 L 227,255 L 225,257 L 225,258 L 224,259 L 224,260 L 223,261 L 223,262 L 222,263 L 222,264 L 221,265 L 221,266 L 220,267 L 220,269 L 219,270 L 219,271 L 218,272 L 218,274 L 217,275 L 217,278 L 216,279 L 216,282 L 215,283 L 215,288 L 214,289 L 214,298 L 213,299 L 213,358 L 212,359 L 212,391 L 211,392 L 211,417 L 210,418 L 211,419 L 210,420 L 210,446 L 209,447 L 209,479 L 208,480 L 208,513 L 207,514 L 207,562 L 208,563 L 208,573 L 209,574 L 209,581 L 210,582 L 210,588 L 211,589 L 211,593 L 212,594 L 212,598 L 213,599 L 213,602 L 214,603 L 214,606 L 215,607 L 215,609 L 216,610 L 216,613 L 217,614 L 217,616 L 218,617 L 218,619 L 219,620 L 219,622 L 220,623 L 220,625 L 221,626 L 221,628 L 222,629 L 222,630 L 223,631 L 223,633 L 224,634 L 224,636 L 225,637 L 225,639 L 226,640 L 226,642 L 227,643 L 227,645 L 228,646 L 228,648 L 229,649 L 229,651 L 230,652 L 230,654 L 231,655 L 231,658 L 232,659 L 232,661 L 233,662 L 233,664 L 234,665 L 234,668 L 235,669 L 235,671 L 236,672 L 236,675 L 237,676 L 237,679 L 238,680 L 238,684 L 239,685 L 239,690 L 240,691 L 240,698 L 241,699 L 241,706 L 242,707 L 242,717 L 243,718 L 243,726 L 244,727 L 244,735 L 245,736 L 245,746 L 246,747 L 246,756 L 247,757 L 247,766 L 248,767 L 248,777 L 249,778 L 249,788 L 250,789 L 250,800 L 251,801 L 251,812 L 252,813 L 252,822 L 253,823 L 253,833 L 254,834 L 254,844 L 255,845 L 255,854 L 256,855 L 256,866 L 257,867 L 257,878 L 258,879 L 258,890 L 259,891 L 259,901 L 260,902 L 260,912 L 261,913 L 261,923 L 262,924 L 262,934 L 263,935 L 263,946 L 264,947 L 264,956 L 265,957 L 265,967 L 266,968 L 266,979 L 267,980 L 267,990 L 268,991 L 268,1001 L 269,1002 L 269,1012 L 270,1013 L 270,1022 L 271,1023 L 271,1033 L 272,1034 L 272,1045 L 273,1046 L 273,1056 L 274,1057 L 274,1067 L 275,1068 L 275,1077 L 276,1078 L 276,1087 L 277,1088 L 277,1097 L 278,1098 L 278,1108 L 279,1109 L 279,1119 L 280,1120 L 280,1128 L 281,1129 L 281,1139 L 282,1140 L 282,1151 L 283,1152 L 283,1162 L 284,1163 L 284,1172 L 285,1173 L 285,1181 L 286,1182 L 286,1190 L 287,1191 L 287,1194 L 288,1195 L 288,1197 L 289,1198 L 289,1200 L 290,1201 L 290,1202 L 295,1207 L 295,1208 L 296,1208 L 297,1209 L 297,1210 L 298,1210 L 302,1214 L 303,1214 L 305,1216 L 306,1216 L 307,1217 L 308,1217 L 310,1219 L 311,1219 L 312,1220 L 313,1220 L 314,1221 L 315,1221 L 316,1222 L 317,1222 L 318,1223 L 320,1223 L 321,1224 L 322,1224 L 323,1225 L 324,1225 L 325,1226 L 327,1226 L 328,1227 L 329,1227 L 330,1228 L 332,1228 L 333,1229 L 335,1229 L 336,1230 L 338,1230 L 339,1231 L 341,1231 L 342,1232 L 344,1232 L 345,1233 L 348,1233 L 349,1234 L 352,1234 L 353,1235 L 355,1235 L 356,1236 L 359,1236 L 360,1237 L 363,1237 L 364,1238 L 367,1238 L 368,1239 L 372,1239 L 373,1240 L 376,1240 L 377,1241 L 381,1241 L 382,1242 L 386,1242 L 387,1243 L 392,1243 L 393,1244 L 398,1244 L 399,1245 L 404,1245 L 405,1246 L 411,1246 L 412,1247 L 418,1247 L 419,1248 L 427,1248 L 428,1249 L 436,1249 L 437,1250 L 447,1250 L 448,1251 L 461,1251 L 462,1252 L 478,1252 L 479,1253 L 506,1253 L 507,1254 L 511,1254 L 512,1253 L 516,1253 L 517,1254 L 518,1254 L 519,1253 L 566,1253 L 567,1252 L 580,1252 L 581,1251 L 592,1251 L 593,1250 L 604,1250 L 605,1249 L 613,1249 L 614,1248 L 621,1248 L 622,1247 L 629,1247 L 630,1246 L 635,1246 L 636,1245 L 641,1245 L 642,1244 L 648,1244 L 649,1243 L 653,1243 L 654,1242 L 658,1242 L 659,1241 L 663,1241 L 664,1240 L 668,1240 L 669,1239 L 672,1239 L 673,1238 L 676,1238 L 677,1237 L 680,1237 L 681,1236 L 684,1236 L 685,1235 L 688,1235 L 689,1234 L 691,1234 L 692,1233 L 695,1233 L 696,1232 L 698,1232 L 699,1231 L 701,1231 L 702,1230 L 704,1230 L 705,1229 L 707,1229 L 708,1228 L 710,1228 L 711,1227 L 712,1227 L 713,1226 L 715,1226 L 716,1225 L 717,1225 L 718,1224 L 720,1224 L 721,1223 L 722,1223 L 723,1222 L 724,1222 L 725,1221 L 726,1221 L 727,1220 L 728,1220 L 729,1219 L 730,1219 L 731,1218 L 732,1218 L 733,1217 L 734,1217 L 736,1215 L 737,1215 L 739,1213 L 740,1213 L 745,1208 L 746,1208 L 750,1204 L 750,1203 L 753,1200 L 753,1199 L 754,1198 L 754,1196 L 755,1195 L 755,1193 L 756,1192 L 756,1188 L 757,1187 L 757,1180 L 758,1179 L 758,1171 L 759,1170 L 759,1161 L 760,1160 L 760,1151 L 761,1150 L 761,1140 L 762,1139 L 762,1129 L 763,1128 L 763,1120 L 764,1119 L 764,1110 L 765,1109 L 765,1100 L 766,1099 L 766,1090 L 767,1089 L 767,1079 L 768,1078 L 768,1069 L 769,1068 L 769,1058 L 770,1057 L 770,1047 L 771,1046 L 771,1037 L 772,1036 L 772,1025 L 773,1024 L 773,1015 L 774,1014 L 774,1003 L 775,1002 L 775,991 L 776,990 L 776,979 L 777,978 L 777,968 L 778,967 L 778,956 L 779,955 L 779,946 L 780,945 L 780,936 L 781,935 L 781,926 L 782,925 L 782,915 L 783,914 L 783,905 L 784,904 L 784,893 L 785,892 L 785,883 L 786,882 L 786,872 L 787,871 L 787,860 L 788,859 L 788,851 L 789,850 L 789,841 L 790,840 L 790,830 L 791,829 L 791,820 L 792,819 L 792,809 L 793,808 L 793,798 L 794,797 L 794,788 L 795,787 L 795,778 L 796,777 L 796,768 L 797,767 L 797,757 L 798,756 L 798,747 L 799,746 L 799,737 L 800,736 L 800,729 L 801,728 L 801,720 L 802,719 L 802,711 L 803,710 L 803,703 L 804,702 L 804,695 L 805,694 L 805,689 L 806,688 L 806,683 L 807,682 L 807,679 L 808,678 L 808,675 L 809,674 L 809,672 L 810,671 L 810,669 L 811,668 L 811,665 L 812,664 L 812,662 L 813,661 L 813,659 L 814,658 L 814,655 L 815,654 L 815,652 L 816,651 L 816,649 L 817,648 L 817,647 L 818,646 L 818,644 L 819,643 L 819,641 L 820,640 L 820,638 L 821,637 L 821,635 L 822,634 L 822,632 L 823,631 L 823,630 L 824,629 L 824,627 L 825,626 L 825,624 L 826,623 L 826,622 L 827,621 L 827,619 L 828,618 L 828,615 L 829,614 L 829,612 L 830,611 L 830,609 L 831,608 L 831,605 L 832,604 L 832,600 L 833,599 L 833,596 L 834,595 L 834,590 L 835,589 L 835,583 L 836,582 L 836,573 L 837,572 L 837,557 L 838,556 L 838,537 L 837,536 L 837,464 L 836,463 L 836,413 L 835,412 L 835,347 L 834,346 L 835,345 L 835,342 L 834,341 L 834,275 L 833,274 L 833,270 L 832,269 L 832,266 L 831,265 L 831,263 L 830,262 L 830,260 L 829,259 L 829,258 L 828,257 L 828,255 L 827,254 L 827,253 L 826,252 L 826,251 L 824,249 L 824,248 L 823,247 L 823,246 L 821,244 L 821,243 L 819,241 L 819,240 L 814,235 L 814,234 L 806,226 L 805,226 L 800,221 L 799,221 L 797,219 L 796,219 L 794,217 L 793,217 L 791,215 L 790,215 L 789,214 L 788,214 L 787,213 L 786,213 L 785,212 L 784,212 L 783,211 L 782,211 L 781,210 L 780,210 L 779,209 L 777,209 L 776,208 L 775,208 L 774,207 L 772,207 L 771,206 L 769,206 L 768,205 L 764,205 L 763,204 L 759,204 L 758,203 L 754,203 L 753,202 L 752,202 L 751,201 L 750,201 L 737,188 L 736,188 L 734,186 L 733,186 L 731,184 L 730,184 L 728,182 L 727,182 L 726,181 L 725,181 L 724,180 L 723,180 L 722,179 L 721,179 L 720,178 L 719,178 L 718,177 L 716,177 L 715,176 L 714,176 L 713,175 L 711,175 L 710,174 L 707,174 L 706,173 L 704,173 L 703,172 L 698,172 L 697,171 L 691,171 L 690,170 L 671,170 L 670,169 L 669,169 L 663,163 L 662,163 L 656,157 L 655,157 L 653,155 L 652,155 L 650,153 L 649,153 L 648,152 L 647,152 L 646,151 L 645,151 L 643,149 L 641,149 L 640,148 L 639,148 L 638,147 L 636,147 L 635,146 L 633,146 L 632,145 L 629,145 L 628,144 L 626,144 L 625,143 L 620,143 L 619,142 L 611,142 L 610,141 L 603,141 L 602,142 L 590,142 L 589,143 L 584,143 L 583,144 L 581,144 L 580,145 L 577,145 L 576,146 L 574,146 L 573,147 L 572,147 L 571,148 L 569,148 L 568,149 L 567,149 L 566,150 L 565,150 L 564,151 L 563,151 L 562,152 L 561,152 L 560,153 L 559,153 L 558,154 L 555,154 L 554,153 L 553,153 L 551,151 L 550,151 L 548,149 L 547,149 L 546,148 L 545,148 L 544,147 L 543,147 L 542,146 L 540,146 L 539,145 L 537,145 L 536,144 L 535,144 L 534,143 L 531,143 L 530,142 L 525,142 L 524,141 Z" fill="white"/>
</mask>
<rect width="1024" height="1536" fill="#facc15" mask="url(#glassMask)"/>
</svg>